<svg width="233" height="177" viewBox="0 0 233 177" fill="none" xmlns="http://www.w3.org/2000/svg">
<path opacity="0.3" fill-rule="evenodd" clip-rule="evenodd" d="M53.0687 166.83L88.8666 201.82C91.5055 204.4 95.7358 204.352 98.3151 201.713L135.52 163.648C138.1 161.009 138.052 156.779 135.413 154.2L99.6147 119.21C96.9758 116.63 92.7455 116.679 90.1662 119.317L52.9608 157.382C50.3815 160.021 50.4297 164.251 53.0687 166.83ZM88.3477 202.351C91.2798 205.217 95.9801 205.164 98.846 202.232L136.051 164.167C138.917 161.235 138.864 156.535 135.932 153.669L100.134 118.679C97.2015 115.813 92.5012 115.866 89.6353 118.799L52.4299 156.863C49.564 159.795 49.6176 164.495 52.5497 167.361L88.3477 202.351ZM103.306 215.934L139.104 250.924C141.743 253.504 145.974 253.455 148.553 250.816L185.758 212.752C188.338 210.113 188.289 205.883 185.65 203.303L149.853 168.313C147.214 165.734 142.983 165.782 140.404 168.421L103.199 206.486C100.619 209.125 100.668 213.355 103.306 215.934ZM138.586 251.455C141.518 254.321 146.218 254.267 149.084 251.335L186.289 213.271C189.155 210.339 189.102 205.639 186.169 202.773L150.371 167.783C147.439 164.917 142.739 164.97 139.873 167.902L102.668 205.967C99.8018 208.899 99.8554 213.599 102.788 216.465L138.586 251.455ZM154.809 163.242L190.607 198.232C193.246 200.811 197.476 200.763 200.055 198.124L237.261 160.06C239.84 157.421 239.792 153.191 237.153 150.611L201.355 115.621C198.716 113.042 194.486 113.09 191.906 115.729L154.701 153.794C152.122 156.433 152.17 160.663 154.809 163.242ZM190.088 198.763C193.02 201.629 197.72 201.575 200.586 198.643L237.792 160.579C240.658 157.647 240.604 152.946 237.672 150.08L201.874 115.09C198.942 112.224 194.241 112.278 191.375 115.21L154.17 153.275C151.304 156.207 151.358 160.907 154.29 163.773L190.088 198.763ZM242.11 145.54L206.312 110.55C203.673 107.97 203.625 103.74 206.204 101.101L243.41 63.0367C245.989 60.3978 250.219 60.3495 252.858 62.9288L288.656 97.9189C291.295 100.498 291.343 104.728 288.764 107.367L251.559 145.432C248.979 148.071 244.749 148.119 242.11 145.54ZM252.09 145.951C249.224 148.883 244.523 148.937 241.591 146.071L205.793 111.081C202.861 108.215 202.807 103.514 205.673 100.582L242.879 62.5177C245.745 59.5856 250.445 59.532 253.377 62.3979L289.175 97.388C292.107 100.254 292.161 104.954 289.295 107.886L252.09 145.951ZM140.369 149.128L104.571 114.138C101.932 111.559 101.884 107.329 104.463 104.69L141.669 66.6253C144.248 63.9864 148.478 63.9381 151.117 66.5175L186.915 101.507C189.554 104.087 189.602 108.317 187.023 110.956L149.817 149.02C147.238 151.659 143.008 151.708 140.369 149.128ZM150.348 149.539C147.482 152.472 142.782 152.525 139.85 149.659L104.052 114.669C101.12 111.803 101.066 107.103 103.932 104.171L141.138 66.1064C144.004 63.1742 148.704 63.1206 151.636 65.9865L187.434 100.977C190.366 103.843 190.42 108.543 187.554 111.475L150.348 149.539ZM156.073 61.4442L191.871 96.4342C194.51 99.0135 198.74 98.9652 201.319 96.3263L238.525 58.2618C241.104 55.6229 241.056 51.3927 238.417 48.8134L202.619 13.8233C199.98 11.244 195.75 11.2923 193.17 13.9312L155.965 51.9957C153.386 54.6346 153.434 58.8648 156.073 61.4442ZM191.352 96.9651C194.284 99.831 198.984 99.7774 201.85 96.8453L239.056 58.7808C241.922 55.8486 241.868 51.1484 238.936 48.2825L203.138 13.2924C200.206 10.4265 195.506 10.4801 192.64 13.4123L155.434 51.4767C152.568 54.4089 152.622 59.1091 155.554 61.9751L191.352 96.9651ZM38.6274 152.715L2.82942 117.725C0.190502 115.146 0.142229 110.915 2.72158 108.276L39.927 70.212C42.5063 67.5731 46.7365 67.5248 49.3755 70.1041L85.1734 105.094C87.8123 107.674 87.8606 111.904 85.2813 114.543L48.0759 152.607C45.4965 155.246 41.2663 155.294 38.6274 152.715ZM48.6068 153.126C45.7408 156.058 41.0406 156.112 38.1085 153.246L2.3105 118.256C-0.621629 115.39 -0.675269 110.69 2.19068 107.758L39.3961 69.6931C42.262 66.7609 46.9623 66.7073 49.8944 69.5732L85.6923 104.563C88.6245 107.429 88.6781 112.129 85.8122 115.062L48.6068 153.126ZM54.3318 65.0328L90.1297 100.023C92.7686 102.602 96.9989 102.554 99.5782 99.915L136.784 61.8505C139.363 59.2116 139.315 54.9813 136.676 52.402L100.878 17.4119C98.2389 14.8326 94.0086 14.8809 91.4293 17.5198L54.2239 55.5843C51.6446 58.2232 51.6928 62.4534 54.3318 65.0328ZM89.6108 100.554C92.5429 103.42 97.2432 103.366 100.109 100.434L137.315 62.3694C140.18 59.4373 140.127 54.737 137.195 51.8711L101.397 16.881C98.4646 14.0151 93.7643 14.0687 90.8984 17.0009L53.693 55.0654C50.8271 57.9975 50.8807 62.6977 53.8128 65.5637L89.6108 100.554ZM141.632 47.3306L105.834 12.3406C103.195 9.76125 103.147 5.53101 105.726 2.8921L142.932 -35.1724C145.511 -37.8113 149.741 -37.8596 152.38 -35.2802L188.178 -0.290206C190.817 2.28915 190.865 6.51938 188.286 9.15829L151.081 47.2228C148.501 49.8617 144.271 49.91 141.632 47.3306ZM151.611 47.7417C148.746 50.6738 144.045 50.7275 141.113 47.8615L105.315 12.8715C102.383 10.0056 102.329 5.30529 105.195 2.37317L142.401 -35.6913C145.267 -38.6234 149.967 -38.6771 152.899 -35.8111L188.697 -0.821109C191.629 2.04483 191.683 6.7451 188.817 9.67721L151.611 47.7417Z" fill="url(#paint0_linear_11397_26329)"/>
<defs>
<linearGradient id="paint0_linear_11397_26329" x1="70.4476" y1="184.855" x2="227.594" y2="42.6823" gradientUnits="userSpaceOnUse">
<stop offset="0.235" stop-color="white" stop-opacity="0.2"/>
<stop offset="1" stop-color="#C73819"/>
</linearGradient>
</defs>
</svg>
